<svg width="300" height="188" viewBox="0 0 300 188" fill="none" xmlns="http://www.w3.org/2000/svg">
<g filter="url(#filter0_ii_1042_1067)">
<rect width="300" height="188" rx="16" fill="url(#paint0_linear_1042_1067)"/>
<path d="M29.706 127.162C28.71 127.162 27.798 127.036 26.97 126.784C26.142 126.52 25.44 126.154 24.864 125.686L25.458 124.21C26.058 124.666 26.7 125.008 27.384 125.236C28.068 125.464 28.842 125.578 29.706 125.578C30.726 125.578 31.476 125.398 31.956 125.038C32.448 124.666 32.694 124.186 32.694 123.598C32.694 123.118 32.52 122.74 32.172 122.464C31.824 122.176 31.242 121.948 30.426 121.78L28.5 121.384C27.36 121.144 26.508 120.748 25.944 120.196C25.392 119.644 25.116 118.9 25.116 117.964C25.116 117.208 25.314 116.542 25.71 115.966C26.118 115.39 26.682 114.946 27.402 114.634C28.122 114.31 28.95 114.148 29.886 114.148C30.75 114.148 31.548 114.28 32.28 114.544C33.024 114.796 33.654 115.168 34.17 115.66L33.558 117.082C32.538 116.182 31.308 115.732 29.868 115.732C28.98 115.732 28.272 115.93 27.744 116.326C27.228 116.722 26.97 117.25 26.97 117.91C26.97 118.414 27.132 118.816 27.456 119.116C27.78 119.416 28.32 119.644 29.076 119.8L30.984 120.196C32.184 120.448 33.078 120.838 33.666 121.366C34.254 121.882 34.548 122.584 34.548 123.472C34.548 124.216 34.35 124.864 33.954 125.416C33.558 125.968 33 126.4 32.28 126.712C31.56 127.012 30.702 127.162 29.706 127.162ZM40.2913 127.162C39.4033 127.162 38.6353 126.976 37.9873 126.604C37.3393 126.232 36.8353 125.71 36.4753 125.038C36.1273 124.354 35.9533 123.544 35.9533 122.608C35.9533 121.672 36.1273 120.868 36.4753 120.196C36.8353 119.512 37.3393 118.984 37.9873 118.612C38.6353 118.24 39.4033 118.054 40.2913 118.054C41.1553 118.054 41.9113 118.24 42.5593 118.612C43.2073 118.984 43.7113 119.512 44.0713 120.196C44.4313 120.868 44.6113 121.672 44.6113 122.608C44.6113 123.544 44.4313 124.354 44.0713 125.038C43.7113 125.71 43.2073 126.232 42.5593 126.604C41.9113 126.976 41.1553 127.162 40.2913 127.162ZM40.2913 125.758C41.0353 125.758 41.6353 125.488 42.0913 124.948C42.5473 124.408 42.7753 123.628 42.7753 122.608C42.7753 121.588 42.5473 120.814 42.0913 120.286C41.6353 119.746 41.0353 119.476 40.2913 119.476C39.5353 119.476 38.9293 119.746 38.4733 120.286C38.0173 120.814 37.7893 121.588 37.7893 122.608C37.7893 123.628 38.0173 124.408 38.4733 124.948C38.9293 125.488 39.5353 125.758 40.2913 125.758ZM46.653 130.24V118.216H48.435V119.71C48.687 119.206 49.071 118.804 49.587 118.504C50.103 118.204 50.697 118.054 51.369 118.054C52.149 118.054 52.827 118.24 53.403 118.612C53.991 118.984 54.441 119.512 54.753 120.196C55.077 120.868 55.239 121.672 55.239 122.608C55.239 123.544 55.077 124.354 54.753 125.038C54.441 125.722 53.991 126.25 53.403 126.622C52.827 126.982 52.149 127.162 51.369 127.162C50.721 127.162 50.139 127.024 49.623 126.748C49.119 126.46 48.735 126.07 48.471 125.578V130.24H46.653ZM50.919 125.758C51.675 125.758 52.275 125.488 52.719 124.948C53.175 124.408 53.403 123.628 53.403 122.608C53.403 121.588 53.175 120.814 52.719 120.286C52.275 119.746 51.675 119.476 50.919 119.476C50.163 119.476 49.557 119.746 49.101 120.286C48.657 120.814 48.435 121.588 48.435 122.608C48.435 123.628 48.657 124.408 49.101 124.948C49.557 125.488 50.163 125.758 50.919 125.758ZM57.2878 127V114.31H59.1058V119.584C59.4058 119.08 59.8078 118.702 60.3118 118.45C60.8278 118.186 61.4038 118.054 62.0398 118.054C64.1158 118.054 65.1538 119.23 65.1538 121.582V127H63.3358V121.69C63.3358 120.934 63.1858 120.382 62.8858 120.034C62.5978 119.686 62.1418 119.512 61.5178 119.512C60.7858 119.512 60.1978 119.746 59.7538 120.214C59.3218 120.67 59.1058 121.276 59.1058 122.032V127H57.2878ZM67.4969 116.182V114.292H69.6209V116.182H67.4969ZM67.6589 127V118.216H69.4769V127H67.6589ZM74.8438 127.162C74.2318 127.162 73.6858 127.042 73.2058 126.802C72.7258 126.562 72.3418 126.238 72.0538 125.83C71.7778 125.422 71.6398 124.96 71.6398 124.444C71.6398 123.796 71.8018 123.286 72.1258 122.914C72.4618 122.542 73.0078 122.272 73.7638 122.104C74.5318 121.936 75.5638 121.852 76.8598 121.852H77.4718V121.384C77.4718 120.7 77.3278 120.208 77.0398 119.908C76.7518 119.608 76.2778 119.458 75.6178 119.458C75.1138 119.458 74.6098 119.536 74.1058 119.692C73.6018 119.836 73.0858 120.07 72.5578 120.394L71.9998 119.116C72.4558 118.792 73.0258 118.534 73.7098 118.342C74.3938 118.15 75.0478 118.054 75.6718 118.054C76.8718 118.054 77.7598 118.342 78.3358 118.918C78.9118 119.482 79.1998 120.37 79.1998 121.582V127H77.4898V125.542C77.2738 126.046 76.9378 126.442 76.4818 126.73C76.0258 127.018 75.4798 127.162 74.8438 127.162ZM75.2038 125.866C75.8518 125.866 76.3918 125.638 76.8238 125.182C77.2558 124.726 77.4718 124.15 77.4718 123.454V122.968H76.8778C76.0018 122.968 75.3118 123.01 74.8078 123.094C74.3158 123.178 73.9618 123.322 73.7458 123.526C73.5418 123.718 73.4398 123.988 73.4398 124.336C73.4398 124.792 73.5958 125.164 73.9078 125.452C74.2198 125.728 74.6518 125.866 75.2038 125.866ZM86.6303 127V114.31H88.5023V120.016H88.5383L94.4243 114.31H96.7283L90.3203 120.448L97.0883 127H94.7483L88.5383 121.078H88.5023V127H86.6303ZM97.9987 127V118.216H99.7627V119.674C100.063 119.146 100.471 118.744 100.987 118.468C101.515 118.192 102.103 118.054 102.751 118.054C104.827 118.054 105.865 119.23 105.865 121.582V127H104.047V121.69C104.047 120.934 103.897 120.382 103.597 120.034C103.309 119.686 102.853 119.512 102.229 119.512C101.497 119.512 100.909 119.746 100.465 120.214C100.033 120.67 99.8167 121.276 99.8167 122.032V127H97.9987ZM112.186 127.162C111.298 127.162 110.53 126.976 109.882 126.604C109.234 126.232 108.73 125.71 108.37 125.038C108.022 124.354 107.848 123.544 107.848 122.608C107.848 121.672 108.022 120.868 108.37 120.196C108.73 119.512 109.234 118.984 109.882 118.612C110.53 118.24 111.298 118.054 112.186 118.054C113.05 118.054 113.806 118.24 114.454 118.612C115.102 118.984 115.606 119.512 115.966 120.196C116.326 120.868 116.506 121.672 116.506 122.608C116.506 123.544 116.326 124.354 115.966 125.038C115.606 125.71 115.102 126.232 114.454 126.604C113.806 126.976 113.05 127.162 112.186 127.162ZM112.186 125.758C112.93 125.758 113.53 125.488 113.986 124.948C114.442 124.408 114.67 123.628 114.67 122.608C114.67 121.588 114.442 120.814 113.986 120.286C113.53 119.746 112.93 119.476 112.186 119.476C111.43 119.476 110.824 119.746 110.368 120.286C109.912 120.814 109.684 121.588 109.684 122.608C109.684 123.628 109.912 124.408 110.368 124.948C110.824 125.488 111.43 125.758 112.186 125.758ZM120.765 127L117.417 118.216H119.289L121.647 124.876L124.077 118.216H125.481L127.875 124.912L130.269 118.216H132.051L128.703 127H127.047L124.725 120.718L122.421 127H120.765ZM136.474 127.162C135.514 127.162 134.794 126.892 134.314 126.352C133.846 125.812 133.612 125.02 133.612 123.976V114.31H135.43V123.868C135.43 125.056 135.916 125.65 136.888 125.65C137.032 125.65 137.164 125.644 137.284 125.632C137.416 125.62 137.548 125.596 137.68 125.56L137.644 127.018C137.236 127.114 136.846 127.162 136.474 127.162ZM143.148 127.162C141.708 127.162 140.574 126.76 139.746 125.956C138.918 125.14 138.504 124.03 138.504 122.626C138.504 121.726 138.684 120.934 139.044 120.25C139.416 119.554 139.926 119.014 140.574 118.63C141.222 118.246 141.966 118.054 142.806 118.054C144.018 118.054 144.972 118.444 145.668 119.224C146.364 119.992 146.712 121.054 146.712 122.41V123.022H140.268C140.4 124.846 141.366 125.758 143.166 125.758C143.67 125.758 144.162 125.68 144.642 125.524C145.134 125.368 145.596 125.11 146.028 124.75L146.568 126.01C146.172 126.37 145.662 126.652 145.038 126.856C144.414 127.06 143.784 127.162 143.148 127.162ZM142.878 119.332C142.122 119.332 141.522 119.566 141.078 120.034C140.634 120.502 140.364 121.126 140.268 121.906H145.182C145.146 121.09 144.93 120.46 144.534 120.016C144.138 119.56 143.586 119.332 142.878 119.332ZM151.772 127.162C151.052 127.162 150.38 127.072 149.756 126.892C149.132 126.7 148.61 126.436 148.19 126.1L148.712 124.876C149.156 125.188 149.642 125.428 150.17 125.596C150.71 125.764 151.25 125.848 151.79 125.848C152.426 125.848 152.906 125.734 153.23 125.506C153.554 125.278 153.716 124.972 153.716 124.588C153.716 124.276 153.608 124.036 153.392 123.868C153.176 123.688 152.852 123.55 152.42 123.454L150.71 123.112C149.198 122.8 148.442 122.02 148.442 120.772C148.442 119.944 148.772 119.284 149.432 118.792C150.092 118.3 150.956 118.054 152.024 118.054C152.636 118.054 153.218 118.144 153.77 118.324C154.334 118.504 154.802 118.774 155.174 119.134L154.652 120.358C154.292 120.046 153.878 119.806 153.41 119.638C152.942 119.47 152.48 119.386 152.024 119.386C151.4 119.386 150.926 119.506 150.602 119.746C150.278 119.974 150.116 120.286 150.116 120.682C150.116 121.282 150.512 121.666 151.304 121.834L153.014 122.176C153.794 122.332 154.382 122.596 154.778 122.968C155.186 123.34 155.39 123.844 155.39 124.48C155.39 125.32 155.06 125.98 154.4 126.46C153.74 126.928 152.864 127.162 151.772 127.162Z" fill="#F6F6FE"/>
<path d="M25.0625 151.977C25.0625 151.482 25.2188 151.078 25.5312 150.766C25.849 150.448 26.2682 150.289 26.7891 150.289C27.3255 150.289 27.75 150.448 28.0625 150.766C28.375 151.078 28.5312 151.49 28.5312 152V152.289C28.5312 152.779 28.375 153.18 28.0625 153.492C27.7552 153.799 27.3333 153.953 26.7969 153.953C26.2812 153.953 25.8646 153.805 25.5469 153.508C25.2344 153.206 25.0729 152.812 25.0625 152.328V151.977ZM32.6562 151.977C32.6562 151.482 32.8125 151.078 33.125 150.766C33.4427 150.448 33.862 150.289 34.3828 150.289C34.9193 150.289 35.3438 150.448 35.6562 150.766C35.9688 151.078 36.125 151.49 36.125 152V152.289C36.125 152.779 35.9688 153.18 35.6562 153.492C35.349 153.799 34.9271 153.953 34.3906 153.953C33.875 153.953 33.4583 153.805 33.1406 153.508C32.8281 153.206 32.6667 152.812 32.6562 152.328V151.977ZM40.25 151.977C40.25 151.482 40.4062 151.078 40.7188 150.766C41.0365 150.448 41.4557 150.289 41.9766 150.289C42.513 150.289 42.9375 150.448 43.25 150.766C43.5625 151.078 43.7188 151.49 43.7188 152V152.289C43.7188 152.779 43.5625 153.18 43.25 153.492C42.9427 153.799 42.5208 153.953 41.9844 153.953C41.4688 153.953 41.0521 153.805 40.7344 153.508C40.4219 153.206 40.2604 152.812 40.25 152.328V151.977ZM47.8438 151.977C47.8438 151.482 48 151.078 48.3125 150.766C48.6302 150.448 49.0495 150.289 49.5703 150.289C50.1068 150.289 50.5312 150.448 50.8438 150.766C51.1562 151.078 51.3125 151.49 51.3125 152V152.289C51.3125 152.779 51.1562 153.18 50.8438 153.492C50.5365 153.799 50.1146 153.953 49.5781 153.953C49.0625 153.953 48.6458 153.805 48.3281 153.508C48.0156 153.206 47.8542 152.812 47.8438 152.328V151.977ZM55.4375 151.977C55.4375 151.482 55.5938 151.078 55.9062 150.766C56.224 150.448 56.6432 150.289 57.1641 150.289C57.7005 150.289 58.125 150.448 58.4375 150.766C58.75 151.078 58.9062 151.49 58.9062 152V152.289C58.9062 152.779 58.75 153.18 58.4375 153.492C58.1302 153.799 57.7083 153.953 57.1719 153.953C56.6562 153.953 56.2396 153.805 55.9219 153.508C55.6094 153.206 55.4479 152.812 55.4375 152.328V151.977ZM63.0312 151.977C63.0312 151.482 63.1875 151.078 63.5 150.766C63.8177 150.448 64.237 150.289 64.7578 150.289C65.2943 150.289 65.7188 150.448 66.0312 150.766C66.3438 151.078 66.5 151.49 66.5 152V152.289C66.5 152.779 66.3438 153.18 66.0312 153.492C65.724 153.799 65.3021 153.953 64.7656 153.953C64.25 153.953 63.8333 153.805 63.5156 153.508C63.2031 153.206 63.0417 152.812 63.0312 152.328V151.977ZM70.625 151.977C70.625 151.482 70.7812 151.078 71.0938 150.766C71.4115 150.448 71.8307 150.289 72.3516 150.289C72.888 150.289 73.3125 150.448 73.625 150.766C73.9375 151.078 74.0938 151.49 74.0938 152V152.289C74.0938 152.779 73.9375 153.18 73.625 153.492C73.3177 153.799 72.8958 153.953 72.3594 153.953C71.8438 153.953 71.4271 153.805 71.1094 153.508C70.7969 153.206 70.6354 152.812 70.625 152.328V151.977ZM78.2188 151.977C78.2188 151.482 78.375 151.078 78.6875 150.766C79.0052 150.448 79.4245 150.289 79.9453 150.289C80.4818 150.289 80.9062 150.448 81.2188 150.766C81.5312 151.078 81.6875 151.49 81.6875 152V152.289C81.6875 152.779 81.5312 153.18 81.2188 153.492C80.9115 153.799 80.4896 153.953 79.9531 153.953C79.4375 153.953 79.0208 153.805 78.7031 153.508C78.3906 153.206 78.2292 152.812 78.2188 152.328V151.977ZM85.8125 151.977C85.8125 151.482 85.9688 151.078 86.2812 150.766C86.599 150.448 87.0182 150.289 87.5391 150.289C88.0755 150.289 88.5 150.448 88.8125 150.766C89.125 151.078 89.2812 151.49 89.2812 152V152.289C89.2812 152.779 89.125 153.18 88.8125 153.492C88.5052 153.799 88.0833 153.953 87.5469 153.953C87.0312 153.953 86.6146 153.805 86.2969 153.508C85.9844 153.206 85.8229 152.812 85.8125 152.328V151.977ZM93.4062 151.977C93.4062 151.482 93.5625 151.078 93.875 150.766C94.1927 150.448 94.612 150.289 95.1328 150.289C95.6693 150.289 96.0938 150.448 96.4062 150.766C96.7188 151.078 96.875 151.49 96.875 152V152.289C96.875 152.779 96.7188 153.18 96.4062 153.492C96.099 153.799 95.6771 153.953 95.1406 153.953C94.625 153.953 94.2083 153.805 93.8906 153.508C93.5781 153.206 93.4167 152.812 93.4062 152.328V151.977ZM101 151.977C101 151.482 101.156 151.078 101.469 150.766C101.786 150.448 102.206 150.289 102.727 150.289C103.263 150.289 103.688 150.448 104 150.766C104.312 151.078 104.469 151.49 104.469 152V152.289C104.469 152.779 104.312 153.18 104 153.492C103.693 153.799 103.271 153.953 102.734 153.953C102.219 153.953 101.802 153.805 101.484 153.508C101.172 153.206 101.01 152.812 101 152.328V151.977ZM108.594 151.977C108.594 151.482 108.75 151.078 109.062 150.766C109.38 150.448 109.799 150.289 110.32 150.289C110.857 150.289 111.281 150.448 111.594 150.766C111.906 151.078 112.062 151.49 112.062 152V152.289C112.062 152.779 111.906 153.18 111.594 153.492C111.286 153.799 110.865 153.953 110.328 153.953C109.812 153.953 109.396 153.805 109.078 153.508C108.766 153.206 108.604 152.812 108.594 152.328V151.977ZM119.749 158.144C118.992 158.144 118.272 158.032 117.589 157.808C116.906 157.573 116.336 157.248 115.877 156.832L116.453 155.552C116.954 155.957 117.472 156.256 118.005 156.448C118.538 156.64 119.104 156.736 119.701 156.736C120.469 156.736 121.05 156.571 121.445 156.24C121.85 155.909 122.053 155.435 122.053 154.816C122.053 154.197 121.85 153.739 121.445 153.44C121.05 153.141 120.474 152.992 119.717 152.992H117.973V151.6H119.557C120.229 151.6 120.757 151.429 121.141 151.088C121.536 150.747 121.733 150.277 121.733 149.68C121.733 149.136 121.552 148.72 121.189 148.432C120.826 148.133 120.309 147.984 119.637 147.984C118.496 147.984 117.498 148.395 116.645 149.216L116.069 147.952C116.506 147.515 117.05 147.179 117.701 146.944C118.362 146.699 119.05 146.576 119.765 146.576C120.896 146.576 121.776 146.837 122.405 147.36C123.034 147.872 123.349 148.587 123.349 149.504C123.349 150.123 123.189 150.667 122.869 151.136C122.56 151.605 122.128 151.947 121.573 152.16C122.245 152.331 122.762 152.661 123.125 153.152C123.488 153.632 123.669 154.224 123.669 154.928C123.669 155.92 123.317 156.704 122.613 157.28C121.92 157.856 120.965 158.144 119.749 158.144ZM131.543 158V155.712H126.471V154.48L131.831 146.72H133.191V154.32H134.839V155.712H133.191V158H131.543ZM131.543 154.32V149.312L128.119 154.32H131.543ZM141.289 158.144C140.563 158.144 139.859 158.032 139.177 157.808C138.505 157.573 137.945 157.248 137.497 156.832L138.057 155.552C139.038 156.341 140.105 156.736 141.257 156.736C141.993 156.736 142.569 156.539 142.985 156.144C143.401 155.739 143.609 155.211 143.609 154.56C143.609 153.888 143.411 153.339 143.017 152.912C142.622 152.485 142.073 152.272 141.369 152.272C140.377 152.272 139.582 152.683 138.985 153.504H137.833V146.72H144.553V148.112H139.449V151.68C140.046 151.157 140.803 150.896 141.721 150.896C142.435 150.896 143.054 151.045 143.577 151.344C144.099 151.643 144.505 152.064 144.793 152.608C145.081 153.141 145.225 153.765 145.225 154.48C145.225 155.205 145.065 155.845 144.745 156.4C144.425 156.944 143.971 157.371 143.385 157.68C142.798 157.989 142.099 158.144 141.289 158.144ZM152.106 158.144C150.741 158.144 149.685 157.659 148.938 156.688C148.202 155.717 147.834 154.357 147.834 152.608C147.834 150.677 148.25 149.189 149.082 148.144C149.914 147.099 151.066 146.576 152.538 146.576C153.114 146.576 153.696 146.693 154.282 146.928C154.869 147.152 155.36 147.472 155.754 147.888L155.178 149.136C154.794 148.752 154.368 148.464 153.898 148.272C153.44 148.08 152.976 147.984 152.506 147.984C151.514 147.984 150.752 148.347 150.218 149.072C149.696 149.787 149.434 150.859 149.434 152.288V152.928C149.648 152.277 150.016 151.771 150.538 151.408C151.072 151.035 151.685 150.848 152.378 150.848C153.04 150.848 153.621 151.003 154.122 151.312C154.634 151.621 155.034 152.048 155.322 152.592C155.61 153.125 155.754 153.739 155.754 154.432C155.754 155.157 155.6 155.803 155.29 156.368C154.981 156.923 154.549 157.36 153.994 157.68C153.45 157.989 152.821 158.144 152.106 158.144ZM152.01 156.8C152.661 156.8 153.189 156.587 153.594 156.16C154 155.733 154.202 155.179 154.202 154.496C154.202 153.813 154 153.259 153.594 152.832C153.189 152.405 152.661 152.192 152.01 152.192C151.36 152.192 150.832 152.405 150.426 152.832C150.021 153.259 149.818 153.813 149.818 154.496C149.818 155.179 150.021 155.733 150.426 156.16C150.832 156.587 151.36 156.8 152.01 156.8Z" fill="#F6F6FE"/>
<path d="M230.747 158V156.608H233.307V148.64L231.307 149.888L230.635 148.656L233.787 146.72H234.955V156.608H237.355V158H230.747ZM244.269 158.144C242.957 158.144 241.954 157.648 241.261 156.656C240.578 155.653 240.237 154.219 240.237 152.352C240.237 150.453 240.578 149.019 241.261 148.048C241.954 147.067 242.957 146.576 244.269 146.576C245.591 146.576 246.594 147.067 247.277 148.048C247.959 149.019 248.301 150.448 248.301 152.336C248.301 154.213 247.954 155.653 247.261 156.656C246.578 157.648 245.581 158.144 244.269 158.144ZM244.269 156.768C245.079 156.768 245.682 156.411 246.077 155.696C246.471 154.981 246.669 153.861 246.669 152.336C246.669 150.811 246.471 149.701 246.077 149.008C245.693 148.304 245.09 147.952 244.269 147.952C243.458 147.952 242.855 148.304 242.461 149.008C242.066 149.712 241.869 150.821 241.869 152.336C241.869 153.861 242.066 154.981 242.461 155.696C242.855 156.411 243.458 156.768 244.269 156.768ZM250.991 159.056L249.758 158.688L253.871 145.92L255.119 146.288L250.991 159.056ZM257.173 158V156.768L260.933 152.736C261.455 152.171 261.829 151.659 262.053 151.2C262.287 150.741 262.405 150.277 262.405 149.808C262.405 148.592 261.69 147.984 260.261 147.984C259.173 147.984 258.197 148.395 257.333 149.216L256.741 147.952C257.167 147.536 257.711 147.205 258.373 146.96C259.034 146.704 259.722 146.576 260.437 146.576C261.599 146.576 262.49 146.843 263.109 147.376C263.738 147.909 264.053 148.672 264.053 149.664C264.053 150.336 263.887 150.992 263.557 151.632C263.237 152.272 262.73 152.955 262.037 153.68L259.253 156.608H264.501V158H257.173ZM271.03 158.144C270.273 158.144 269.553 158.032 268.87 157.808C268.188 157.573 267.617 157.248 267.158 156.832L267.734 155.552C268.236 155.957 268.753 156.256 269.286 156.448C269.82 156.64 270.385 156.736 270.982 156.736C271.75 156.736 272.332 156.571 272.726 156.24C273.132 155.909 273.334 155.435 273.334 154.816C273.334 154.197 273.132 153.739 272.726 153.44C272.332 153.141 271.756 152.992 270.998 152.992H269.254V151.6H270.838C271.51 151.6 272.038 151.429 272.422 151.088C272.817 150.747 273.014 150.277 273.014 149.68C273.014 149.136 272.833 148.72 272.47 148.432C272.108 148.133 271.59 147.984 270.918 147.984C269.777 147.984 268.78 148.395 267.926 149.216L267.35 147.952C267.788 147.515 268.332 147.179 268.982 146.944C269.644 146.699 270.332 146.576 271.046 146.576C272.177 146.576 273.057 146.837 273.686 147.36C274.316 147.872 274.63 148.587 274.63 149.504C274.63 150.123 274.47 150.667 274.15 151.136C273.841 151.605 273.409 151.947 272.854 152.16C273.526 152.331 274.044 152.661 274.406 153.152C274.769 153.632 274.95 154.224 274.95 154.928C274.95 155.92 274.598 156.704 273.894 157.28C273.201 157.856 272.246 158.144 271.03 158.144Z" fill="#F6F6FE"/>
<g clip-path="url(#clip0_1042_1067)">
<path d="M56.9329 51.654H50.7764L54.6271 28.4214H60.7833L56.9329 51.654Z" fill="white"/>
<path d="M79.2511 28.9891C78.0368 28.519 76.1107 28 73.7292 28C67.6494 28 63.3681 31.1634 63.3418 35.6862C63.2913 39.0231 66.4071 40.8764 68.7375 41.9891C71.1194 43.126 71.9291 43.8681 71.9291 44.8815C71.9048 46.4379 70.0044 47.1553 68.2318 47.1553C65.7739 47.1553 64.4569 46.7854 62.4554 45.9195L61.6447 45.5483L60.7832 50.7635C62.2271 51.4054 64.8874 51.975 67.6494 52C74.1093 52 78.3149 48.8855 78.3647 44.0658C78.3893 41.4211 76.744 39.3946 73.1969 37.7386C71.0436 36.6756 69.7249 35.9588 69.7249 34.8712C69.7502 33.8824 70.8403 32.8696 73.271 32.8696C75.2725 32.82 76.743 33.2895 77.857 33.7592L78.4138 34.0059L79.2511 28.9891Z" fill="white"/>
<path d="M87.4334 43.4235C87.9404 42.0888 89.8913 36.9232 89.8913 36.9232C89.8658 36.9728 90.3973 35.5639 90.7014 34.699L91.1316 36.7008C91.1316 36.7008 92.2975 42.262 92.5506 43.4235C91.5885 43.4235 88.6494 43.4235 87.4334 43.4235ZM95.0328 28.4214H90.2708C88.8022 28.4214 87.6865 28.8412 87.0529 30.349L77.9082 51.6537H84.3681C84.3681 51.6537 85.4316 48.7862 85.6602 48.1687C86.3689 48.1687 92.653 48.1687 93.5647 48.1687C93.7414 48.9843 94.2993 51.6537 94.2993 51.6537H99.9996L95.0328 28.4214Z" fill="white"/>
<path d="M45.6345 28.4214L39.6052 44.2638L38.9464 41.0508C37.8317 37.3434 34.3358 33.3153 30.4346 31.3125L35.9572 51.6294H42.4675L52.1445 28.4214H45.6345Z" fill="white"/>
<path d="M34.0066 28.4214H24.1013L24 28.8908C31.7267 30.8188 36.844 35.466 38.9464 41.0518L36.7931 30.3743C36.4386 28.8905 35.3492 28.4703 34.0066 28.4214Z" fill="white"/>
</g>
</g>
<defs>
<filter id="filter0_ii_1042_1067" x="-4" y="-4" width="308" height="196" filterUnits="userSpaceOnUse" color-interpolation-filters="sRGB">
<feFlood flood-opacity="0" result="BackgroundImageFix"/>
<feBlend mode="normal" in="SourceGraphic" in2="BackgroundImageFix" result="shape"/>
<feColorMatrix in="SourceAlpha" type="matrix" values="0 0 0 0 0 0 0 0 0 0 0 0 0 0 0 0 0 0 127 0" result="hardAlpha"/>
<feOffset dx="4" dy="4"/>
<feGaussianBlur stdDeviation="8"/>
<feComposite in2="hardAlpha" operator="arithmetic" k2="-1" k3="1"/>
<feColorMatrix type="matrix" values="0 0 0 0 1 0 0 0 0 1 0 0 0 0 1 0 0 0 0.2 0"/>
<feBlend mode="normal" in2="shape" result="effect1_innerShadow_1042_1067"/>
<feColorMatrix in="SourceAlpha" type="matrix" values="0 0 0 0 0 0 0 0 0 0 0 0 0 0 0 0 0 0 127 0" result="hardAlpha"/>
<feOffset dx="-4" dy="-4"/>
<feGaussianBlur stdDeviation="8"/>
<feComposite in2="hardAlpha" operator="arithmetic" k2="-1" k3="1"/>
<feColorMatrix type="matrix" values="0 0 0 0 0 0 0 0 0 0 0 0 0 0 0 0 0 0 0.1 0"/>
<feBlend mode="normal" in2="effect1_innerShadow_1042_1067" result="effect2_innerShadow_1042_1067"/>
</filter>
<linearGradient id="paint0_linear_1042_1067" x1="150" y1="0" x2="150" y2="188" gradientUnits="userSpaceOnUse">
<stop stop-color="#EB568C"/>
<stop offset="1" stop-color="#ED5E76"/>
</linearGradient>
<clipPath id="clip0_1042_1067">
<rect width="76" height="24" fill="white" transform="translate(24 28)"/>
</clipPath>
</defs>
</svg>
