<svg width="14" height="14" viewBox="0 0 14 14" fill="none" xmlns="http://www.w3.org/2000/svg">
<path fill-rule="evenodd" clip-rule="evenodd" d="M12.25 7C12.25 9.8995 9.8995 12.25 7 12.25C4.10051 12.25 1.75 9.8995 1.75 7C1.75 4.10051 4.10051 1.75 7 1.75C9.8995 1.75 12.25 4.10051 12.25 7ZM13.75 7C13.75 10.7279 10.7279 13.75 7 13.75C3.27208 13.75 0.25 10.7279 0.25 7C0.25 3.27208 3.27208 0.25 7 0.25C10.7279 0.25 13.75 3.27208 13.75 7ZM6.73615 3.32283C6.81486 3.10659 6.87866 2.93129 7.23104 3.05955C7.58343 3.18781 7.51963 3.3631 7.44092 3.57935L7.21322 4.20496L7.91799 4.46147L8.14569 3.83586C8.2244 3.61962 8.2882 3.44432 8.64058 3.57258C8.99297 3.70084 8.92916 3.87613 8.85046 4.09238L8.60687 4.76162C8.914 4.9339 9.14173 5.13282 9.29007 5.35838C9.52004 5.70449 9.55319 6.10237 9.38953 6.55203C9.30018 6.7975 9.15818 6.99134 8.96353 7.13354C8.76972 7.27344 8.54453 7.34606 8.28797 7.35141C8.52154 7.50917 8.67625 7.71227 8.7521 7.96071C8.83024 8.21 8.81796 8.47573 8.71526 8.75791C8.5399 9.23969 8.25343 9.54851 7.85583 9.68439C7.55589 9.78689 7.20673 9.79312 6.80834 9.70307L6.57033 10.357C6.49162 10.5732 6.42782 10.7485 6.07543 10.6203C5.72305 10.492 5.78685 10.3167 5.86556 10.1005L6.09432 9.47194L5.38955 9.21543L5.16079 9.84396C5.08208 10.0602 5.01828 10.2355 4.66589 10.1072C4.31351 9.97899 4.37731 9.80369 4.45602 9.58745L4.68479 8.95891L4.61314 8.93283C4.37635 8.84665 4.25426 8.58483 4.34045 8.34805C4.37936 8.24114 4.45681 8.15263 4.5576 8.09987L4.78054 7.98318L4.8888 7.68572L5.91486 4.86664L6.006 4.61625L5.90023 4.41133C5.85278 4.31939 5.84592 4.2118 5.8813 4.11458C5.95131 3.92224 6.16399 3.82307 6.35633 3.89308L6.50845 3.94844L6.73615 3.32283ZM6.28221 7.06954L5.78997 8.42196L6.67438 8.74385C6.91756 8.83237 7.1277 8.8439 7.30481 8.77846C7.48504 8.71155 7.61232 8.57601 7.68664 8.37183C7.85364 7.913 7.70095 7.59372 7.22856 7.41399L6.28221 7.06954ZM6.54774 6.34L7.3117 6.61806C7.83582 6.79843 8.17178 6.68558 8.31957 6.27951C8.40224 6.05239 8.39499 5.86528 8.29784 5.7182C8.20381 5.56967 8.01456 5.44363 7.73008 5.34008L7.00742 5.07706L6.54774 6.34Z" fill="#605DEC"/>
</svg>
